# xmcd
# 
# Track frame offsets:
#     150
#     15232
#     24346
#     42392
#     59043
#     80944
#     92746
#     109514
#     125147
#     141557
#     150425
#     169353
#     188302
#     197355
# 
# Disc length: 2804
# 
# Revision: 9
# Processed by: cddbd v1.5.2PL0 Copyright (c) Steve Scherf et al.
# Submitted via: fre:ac v1.0.31
# 
DISCID=b70af20e
DTITLE=Mati Nuude - Viva šampanja - Kutse tantsule 14
DYEAR=1999
DGENRE=Pop
TTITLE0=Oota sa
TTITLE1=Eh, Odessa
TTITLE2=Anna mulle
TTITLE3=Sõber tuul
TTITLE4=Kesköö tiivad
TTITLE5=Punapea Mary
TTITLE6=Seitse ööd
TTITLE7=Viva šampanja
TTITLE8=Sambarütmis suvi
TTITLE9=Suku-suku
TTITLE10=Mees kui muiste
TTITLE11=Minnes kodust
TTITLE12=Kõrtsi show
TTITLE13=Et oleks rahu
EXTD=
EXTT0=
EXTT1=
EXTT2=
EXTT3=
EXTT4=
EXTT5=
EXTT6=
EXTT7=
EXTT8=
EXTT9=
EXTT10=
EXTT11=
EXTT12=
EXTT13=
PLAYORDER=
